<svg width="75" height="75" viewBox="0 0 75 75" fill="none" xmlns="http://www.w3.org/2000/svg">
<g id="Icon / Cylinder">
<rect width="75" height="75" rx="37.5" fill="white"/>
<path id="Vector" d="M36.6316 59.9173C33.8426 59.9173 31.0536 59.9564 28.2678 59.8831C27.6882 59.8684 26.9229 59.5766 26.6171 59.1414C26.425 58.8675 26.7724 57.8976 27.1534 57.5634C29.9072 55.1346 30.2611 52.0602 30.2098 48.5409C30.0353 36.5629 30.1362 34.9504 30.149 22.9708C30.149 22.0287 29.9665 21.3848 29.1707 20.661C28.4871 20.0399 28.0852 18.7081 28.1413 17.7268C28.2149 16.4244 29.3373 15.6762 30.6357 15.6615C35.0962 15.6142 39.5583 15.6126 44.0188 15.6582C45.3028 15.6713 45.8583 16.5678 45.069 17.572C42.9765 20.2339 43.2503 23.2903 43.2535 26.3484C43.2647 37.8748 43.3111 39.0309 43.2134 50.5557C43.1942 52.8459 43.5881 54.7238 45.2371 56.3702C45.972 57.1021 46.3403 58.2155 46.875 59.156C45.8023 59.4087 44.7376 59.8293 43.6569 59.8814C41.3194 59.9939 38.9739 59.9157 36.6316 59.9157V59.9173ZM31.4666 21.2804C31.4666 24.6857 31.4666 27.853 31.4666 31.0203C31.4666 41.3518 31.4922 41.3146 31.4362 51.6462C31.4282 53.079 31.8541 53.5078 33.2342 53.4442C35.5157 53.3366 37.8099 53.3203 40.0898 53.4474C41.5948 53.5322 41.9534 53.0089 41.947 51.5272C41.891 39.2656 41.9406 37.3727 41.8942 25.1112C41.8846 22.4134 41.8766 19.7759 43.5336 17.4725C43.5753 17.4139 43.4968 17.2655 43.444 17.021C39.2461 17.021 35.0209 16.9688 30.799 17.0878C30.2851 17.1025 29.7952 18.0284 29.294 18.5321C29.84 18.9885 30.3379 19.7351 30.9447 19.8411C32.1359 20.0497 33.3911 19.8541 34.6127 19.9372C34.9537 19.9601 35.2675 20.3757 35.5941 20.6121C35.2563 20.8338 34.9329 21.2136 34.5774 21.2478C33.6456 21.3375 32.6994 21.2788 31.4682 21.2788L31.4666 21.2804ZM45.2083 58.4437C44.5119 57.5749 43.9339 56.975 43.4984 56.2838C42.7587 55.1101 41.7981 54.6977 40.418 54.7548C37.7443 54.864 35.0626 54.7597 32.384 54.8118C31.8221 54.8232 31.1096 54.9634 30.7382 55.3302C29.8432 56.2121 29.1099 57.2635 28.1493 58.4453H45.2067L45.2083 58.4437Z" fill="#333333"/>
<path id="Vector_2" d="M40.6019 37.4947C40.6019 41.0792 40.5606 44.6637 40.6242 48.2448C40.6465 49.5352 40.2138 50.0632 38.8709 49.994C37.3202 49.9131 35.761 49.9451 34.2069 49.9772C33.2075 49.9974 32.8125 49.5555 32.8125 48.6024C32.8245 41.2006 32.828 33.7971 32.8125 26.3954C32.8108 25.2939 33.3637 24.9767 34.3803 25.002C35.9344 25.0408 37.492 25.051 39.0443 25.002C40.2035 24.9649 40.6311 25.4305 40.6173 26.5674C40.5727 30.2093 40.6001 33.8528 40.6019 37.4947ZM34.3821 26.5421V48.3747H39.0375V26.5421H34.3821Z" fill="#7F7F7F"/>
</g>
</svg>
