<svg width="26" height="33" viewBox="0 0 26 33" fill="none" xmlns="http://www.w3.org/2000/svg">
<g clip-path="url(#clip0_329_19383)">
<path d="M2.03456 0H16.5233C16.6867 0 16.8419 0.0705196 16.9505 0.193135L25.8252 8.85053C25.9363 8.95853 25.9987 9.10719 25.9981 9.26221H26V30.4518C26 31.0127 25.7709 31.5242 25.4024 31.8965L25.3992 31.8996C25.0294 32.27 24.522 32.5 23.9654 32.5H2.03456C1.47481 32.5 0.965534 32.2694 0.59699 31.8984C0.229078 31.528 0 31.0153 0 30.4518V2.04824C0 1.48472 0.229078 0.972027 0.59699 0.601005C0.965534 0.230618 1.47481 0 2.03456 0ZM16.7138 1.5635V8.83147H24.1649L16.7138 1.5635ZM24.8546 9.98456H16.1415C15.8253 9.98456 15.5684 9.72599 15.5684 9.40769V1.15309H2.03456C1.79097 1.15309 1.5682 1.25411 1.40665 1.41674C1.24573 1.57875 1.14539 1.80301 1.14539 2.04824V30.4518C1.14539 30.697 1.24573 30.9213 1.40665 31.0833C1.5682 31.2459 1.79097 31.3469 2.03456 31.3469H23.9654C24.2109 31.3469 24.4331 31.2465 24.5927 31.0858L24.5952 31.0833C24.7549 30.9225 24.8546 30.6989 24.8546 30.4518V9.98456Z" fill="#7F7F7F"/>
<path d="M18.2473 27.6659L17.4011 28.2955C16.6533 27.2701 16.2904 26.3337 16.137 25.3229C16.0405 24.6869 16.0291 24.0332 16.0569 23.3128H16.0777C16.3043 23.3007 16.5359 23.2931 16.7624 23.2772V23.2791L17.1101 23.2613C17.0805 23.9582 17.0868 24.5796 17.1758 25.1622C17.3039 26.0052 17.6112 26.7936 18.248 27.6666L18.2473 27.6659ZM20.1039 22.7346C19.0172 22.5034 17.8731 22.5631 16.7277 22.6222C16.5176 22.6336 16.3068 22.6444 16.0506 22.6552C14.9677 22.7016 13.8848 22.701 12.8126 22.4322C11.7177 22.1578 10.6606 21.6101 9.67238 20.5644C8.7466 19.5841 8.32253 18.5181 8.15151 17.3885C7.98743 16.3002 8.06379 15.177 8.14456 14.0137C8.22597 12.8416 8.27772 11.8803 8.1452 11.0068C8.01709 10.1637 7.70913 9.37529 7.07301 8.50238L7.91927 7.87278C8.66709 8.89817 9.02995 9.83526 9.1833 10.8454C9.33223 11.8244 9.27796 12.8473 9.19151 14.0899C9.11452 15.1903 9.04257 16.2525 9.18961 17.2277C9.32908 18.1534 9.67112 19.0231 10.412 19.8154L14.3637 15.837C13.8248 15.3853 13.2657 15.0861 12.6939 14.8911L9.8352 17.769L9.63704 16.8186L11.7795 14.6617C11.1409 14.5531 10.4808 14.5366 9.81248 14.5524C9.82131 14.4146 9.83078 14.2761 9.84088 14.137C9.85602 13.9159 9.87054 13.7011 9.88253 13.4927C10.7603 13.4762 11.6369 13.5175 12.5071 13.7354C13.602 14.0099 14.6591 14.5575 15.6473 15.6033C16.5731 16.5835 16.9978 17.6496 17.1682 18.7792C17.2717 19.464 17.2799 20.1635 17.2515 20.8782C17.0584 20.8871 16.8653 20.8967 16.6722 20.9068C16.6482 20.9068 16.6255 20.9081 16.6028 20.9106L16.1983 20.9316C16.2285 20.2404 16.2254 19.572 16.1295 18.9405C15.9925 18.0321 15.6606 17.1776 14.9487 16.3974L11.0027 20.37C11.5309 20.8026 12.0767 21.0917 12.6359 21.281L15.4517 18.4469L15.6499 19.3973L13.5528 21.5085C14.3467 21.6413 15.1734 21.6343 16.007 21.5987C16.1976 21.5904 16.4355 21.5777 16.6728 21.5657C18.7774 21.4564 20.8783 21.3471 22.8327 22.8388L22.1959 23.6787C21.8066 23.3814 21.402 23.1603 20.9862 22.997L17.9514 26.0522L17.7532 25.1018L20.1046 22.7346H20.1039ZM5.30791 13.4521C6.0267 13.5938 6.76947 13.6128 7.51981 13.5925C7.5116 13.7151 7.5034 13.839 7.49456 13.9661C7.47879 14.1967 7.46301 14.4254 7.4485 14.6535C5.74903 14.6954 4.07039 14.5372 2.48767 13.3288L3.12442 12.4883C3.53903 12.8047 3.97068 13.0353 4.41432 13.2011L7.38034 10.2152L7.5785 11.1656L5.30728 13.4521H5.30791Z" fill="#7F7F7F"/>
</g>
<defs>
<clipPath id="clip0_329_19383">
<rect width="26" height="32.5" fill="white"/>
</clipPath>
</defs>
</svg>
