<?xml version="1.0" encoding="UTF-8"?>
<svg xmlns="http://www.w3.org/2000/svg" version="1.1" viewBox="0 0 566.9 566.9">
  <!-- Generator: Adobe Illustrator 28.7.1, SVG Export Plug-In . SVG Version: 1.2.0 Build 142)  -->
  <g>
    <g id="Camada_1">
      <g>
        <path d="M339.3,430.8l62.3-62.3c-5.2-11.8-13.5-20-25.5-25l-61.9,61.9c-9-16.5-12.9-38.9-12.9-68.3h-35.7c0,98.8,44,142.8,142.8,142.8h71.4v-35.7h-71.4c-30,0-52.6-4-69.1-13.3Z"/>
        <path d="M435.2,87.1c-63.3,0-98.2,34.9-98.2,98.2v44.6h44.6c68.8,0,98.2-29.4,98.2-98.2v-44.6h-44.6ZM444.1,131.7c0,49.6-12.8,62.5-62.5,62.5h-8.9v-8.9c0-43.2,19.3-62.5,62.5-62.5h8.9v8.9Z"/>
        <path d="M87.1,435.2v44.6h44.6c68.8,0,98.2-29.4,98.2-98.2v-44.6h-44.6c-63.3,0-98.2,34.9-98.2,98.2ZM194.2,381.6c0,49.6-12.8,62.5-62.5,62.5h-8.9v-8.9c0-43.2,19.3-62.5,62.5-62.5h8.9v8.9Z"/>
        <path d="M337,265.6h-35.7v-35.7c0-98.8-44-142.8-142.8-142.8h-71.4v35.7h71.4c30,0,52.6,4,69.1,13.3l-62.3,62.3c5.2,11.8,13.5,20,25.5,25l61.9-61.9c9,16.5,12.9,38.9,12.9,68.3v35.7h-35.7c-71.1,0-107.1-36-107.1-107.1h-35.7c0,90.7,52,142.8,142.8,142.8h107.1c71.1,0,107.1,36,107.1,107.1h35.7c0-90.7-52-142.8-142.8-142.8Z"/>
      </g>
    </g>
  </g>
</svg>